<svg id="visual" viewBox="0 0 900 600" width="900" height="600" xmlns="http://www.w3.org/2000/svg" xmlns:xlink="http://www.w3.org/1999/xlink" version="1.1"><rect x="0" y="0" width="900" height="600" fill="#4B9CF9"></rect><g transform="translate(417.1145365611015 364.80726625611885)"><path d="M159.1 -201.7C205.8 -150.3 243.3 -99.9 269.3 -35.2C295.4 29.5 310.1 108.5 272.4 141.8C234.7 175.1 144.7 162.7 82.6 153.5C20.4 144.3 -13.8 138.2 -51.5 129.7C-89.2 121.1 -130.3 110.1 -168 80C-205.6 49.9 -239.7 0.8 -226.6 -34.2C-213.6 -69.2 -153.4 -90.1 -107.8 -141.8C-62.1 -193.4 -31.1 -275.7 12.5 -290.6C56.1 -305.6 112.3 -253.1 159.1 -201.7" fill="#13459C"></path></g></svg>